<svg xmlns="http://www.w3.org/2000/svg" viewBox="0 0 512 512">
    <path
        d="M 501.301 132.758 C 495.388 110.715 478.076 93.404 456.033 87.49 C 416.123 76.791 256 76.791 256 76.791 C 256 76.791 95.877 76.791 55.967 87.49 C 33.925 93.404 16.613 110.715 10.699 132.758 C 0 172.668 0 256 0 256 C 0 256 0 339.332 10.699 379.242 C 16.613 401.284 33.925 418.596 55.967 424.51 C 95.877 435.209 256 435.209 256 435.209 C 256 435.209 416.123 435.209 456.033 424.51 C 478.076 418.596 495.388 401.284 501.301 379.242 C 512 339.332 512 256 512 256 C 512 256 511.964 172.668 501.301 132.758 Z"
        class="style-scope yt-icon" fill="#FF0000" />
    <path
        d="M 130 305.132 L 130 256.007 L 130 190.507 L 130 174.132 C 130 167.787 133.684 162.004 139.416 159.292 C 145.147 156.58 151.952 157.45 156.866 161.544 L 255.116 243.419 C 258.85 246.54 261 251.145 261 256.007 C 261 260.868 258.85 265.474 255.116 268.595 L 156.866 350.47 C 152.004 354.513 145.199 355.434 139.416 352.723 C 133.633 350.01 130 344.228 130 337.882 L 130 305.132 Z"
        fill="#ffffff" />
    <path
        d="M 261 305.132 L 261 256.007 L 261 190.507 L 261 174.132 C 261 167.787 264.684 162.004 270.416 159.292 C 276.147 156.58 282.953 157.45 287.865 161.544 L 386.115 243.419 C 389.851 246.54 392 251.146 392 256.007 C 392 260.869 389.851 265.474 386.115 268.595 L 287.865 350.47 C 283.004 354.513 276.198 355.434 270.416 352.722 C 264.633 350.01 261 344.228 261 337.882 L 261 305.132 Z"
        fill="#282828" />
</svg>